<svg width="227.557" height="150.57" viewBox="0 0 227.557 150.57" xmlns="http://www.w3.org/2000/svg"><g id="svgGroup" stroke-linecap="round" fill-rule="evenodd" font-size="9pt" stroke="#00000000" stroke-width="0.25mm" fill="#6777ef" style="stroke:#00000000;stroke-width:0.25mm;fill:#6777ef"><path d="M 199.629 147.67 L 199.629 148.07 Q 199.029 148.07 198.829 147.87 L 198.429 147.47 A 43.097 43.097 0 0 1 188.826 130.589 A 52.261 52.261 0 0 1 187.829 126.87 Q 185.029 130.27 182.129 133.47 A 29.556 29.556 0 0 1 179.63 135.898 Q 178.234 137.113 176.521 138.356 A 62.313 62.313 0 0 1 174.029 140.07 Q 165.629 145.67 155.329 147.77 Q 146.372 149.596 137.491 146.204 A 38.558 38.558 0 0 1 134.829 145.07 Q 128.829 142.07 125.629 137.17 Q 122.429 132.27 120.929 126.57 Q 119.429 120.87 119.129 114.97 Q 118.829 109.07 118.629 104.27 A 103.259 103.259 0 0 1 118.534 99.879 A 94.387 94.387 0 0 1 119.529 86.07 A 134.857 134.857 0 0 1 121.741 74.489 A 115.24 115.24 0 0 1 123.029 69.57 Q 125.229 61.87 128.029 55.67 Q 130.172 50.923 132.199 47.348 A 62.719 62.719 0 0 1 133.429 45.27 A 2.311 2.311 0 0 1 133.602 44.983 Q 133.8 44.698 134.129 44.37 A 5.478 5.478 0 0 1 134.319 44.187 Q 134.593 43.939 134.75 43.885 A 0.245 0.245 0 0 1 134.829 43.87 Q 135.212 44.061 134.952 44.896 A 3.835 3.835 0 0 1 134.929 44.97 A 23.113 23.113 0 0 1 134.785 45.388 Q 134.636 45.807 134.517 46.079 A 4.134 4.134 0 0 1 134.429 46.27 Q 131.429 55.27 129.029 64.67 Q 126.629 74.07 125.429 83.67 Q 124.229 93.27 124.529 102.97 Q 124.829 112.67 127.229 122.47 Q 128.229 126.47 130.229 130.77 A 18.164 18.164 0 0 0 133.52 135.559 A 24.617 24.617 0 0 0 136.829 138.47 A 17.404 17.404 0 0 0 139.987 140.422 A 14.613 14.613 0 0 0 142.229 141.27 A 24.239 24.239 0 0 0 145.817 142.018 A 20.536 20.536 0 0 0 147.629 142.17 Q 149.774 142.252 151.714 141.994 A 20.527 20.527 0 0 0 152.529 141.87 Q 154.829 141.47 156.829 140.87 A 36.377 36.377 0 0 0 168.895 135.564 A 34.329 34.329 0 0 0 172.329 132.87 Q 178.829 127.07 183.429 121.07 A 18.144 18.144 0 0 0 186.276 116.792 A 20.404 20.404 0 0 0 186.429 116.47 Q 186.229 112.67 186.629 107.67 Q 187.029 102.67 187.629 98.27 Q 188.041 95.245 188.359 92.881 A 1710.561 1710.561 0 0 0 188.629 90.87 Q 189.029 87.87 188.829 88.07 A 85.667 85.667 0 0 1 182.415 99.843 A 72.013 72.013 0 0 1 177.929 105.97 Q 171.629 113.67 167.029 118.47 Q 164.029 121.67 160.329 124.07 Q 156.629 126.47 153.029 127.47 A 13.926 13.926 0 0 1 150.944 127.887 Q 148.538 128.173 146.429 127.47 A 6.519 6.519 0 0 1 143.001 124.778 A 10.004 10.004 0 0 1 142.029 122.87 A 82.396 82.396 0 0 1 139.154 111.956 A 102.037 102.037 0 0 1 138.029 104.77 A 90.412 90.412 0 0 1 137.374 93.88 A 94.352 94.352 0 0 1 137.829 84.67 Q 140.029 64.27 147.529 44.47 Q 155.029 24.67 168.629 8.27 A 9.055 9.055 0 0 1 169.119 7.703 Q 169.647 7.145 170.129 6.87 A 0.828 0.828 0 0 1 170.203 6.832 Q 170.7 6.611 169.851 8.091 A 22.489 22.489 0 0 1 169.629 8.47 Q 165.229 15.27 161.129 24.07 A 184.29 184.29 0 0 0 153.78 42.418 A 200.165 200.165 0 0 0 153.729 42.57 Q 150.429 52.27 147.929 62.47 Q 145.429 72.67 144.429 82.27 A 152.353 152.353 0 0 0 143.595 98.061 A 144.568 144.568 0 0 0 143.629 101.17 Q 143.829 110.47 146.629 117.67 A 9.217 9.217 0 0 0 147.246 118.982 Q 147.636 119.654 148.099 120.125 A 3.698 3.698 0 0 0 149.329 120.97 A 5.255 5.255 0 0 0 151.346 121.378 Q 152.079 121.378 152.829 121.17 Q 154.629 120.67 156.429 119.37 Q 158.229 118.07 159.629 116.87 A 190.85 190.85 0 0 0 169.37 106.97 A 163.322 163.322 0 0 0 173.329 102.47 A 115.013 115.013 0 0 0 182.029 90.713 A 132.715 132.715 0 0 0 184.729 86.37 A 123.339 123.339 0 0 0 190.4 75.615 A 160.63 160.63 0 0 0 194.529 65.97 Q 198.396 56.087 202.189 43.176 A 412.726 412.726 0 0 0 203.429 38.87 A 303.134 303.134 0 0 0 206.635 25.707 A 267.397 267.397 0 0 0 207.529 21.47 Q 208.905 14.67 208.905 8.132 A 61.31 61.31 0 0 0 208.829 5.07 A 20.025 20.025 0 0 1 208.833 4.609 Q 208.86 3.47 209.029 3.47 A 0.49 0.49 0 0 1 209.409 3.652 Q 209.539 3.8 209.629 4.07 Q 209.782 4.529 209.935 4.871 A 5.133 5.133 0 0 0 210.029 5.07 Q 213.029 14.47 212.029 24.77 Q 211.029 35.07 208.229 45.77 Q 205.429 56.47 201.729 67.47 Q 198.029 78.47 195.429 89.47 Q 193.829 96.27 193.029 103.87 Q 192.229 111.47 192.529 118.97 Q 192.829 126.47 194.429 133.67 Q 196.029 140.87 199.429 147.07 Q 199.629 147.27 199.629 147.67 Z M 38.429 23.67 L 36.029 23.67 Q 35.629 31.47 33.829 39.67 Q 32.029 47.87 29.529 56.17 Q 27.029 64.47 24.329 72.87 Q 21.629 81.27 19.629 89.67 Q 19.229 91.47 18.529 95.87 Q 17.83 100.261 17.43 105.748 A 152.951 152.951 0 0 0 17.429 105.77 A 153.487 153.487 0 0 0 17.06 113.986 A 178.456 178.456 0 0 0 17.029 117.37 A 74.281 74.281 0 0 0 17.535 126.182 A 65.028 65.028 0 0 0 17.929 128.97 A 50.73 50.73 0 0 0 19.204 134.733 A 39.938 39.938 0 0 0 20.629 138.87 Q 22.429 143.27 25.829 145.07 A 18.061 18.061 0 0 1 25.227 144.019 Q 24.407 142.485 23.329 139.97 Q 21.953 136.76 21.166 132.457 A 50.833 50.833 0 0 1 21.029 131.67 Q 20.629 129.27 20.529 126.27 Q 20.429 123.27 20.629 120.57 Q 20.829 117.87 21.229 116.07 Q 21.606 114.369 22.341 114.275 A 0.687 0.687 0 0 1 22.429 114.27 A 0.137 0.137 0 0 1 22.524 114.326 Q 22.696 114.519 22.929 115.37 A 39.379 39.379 0 0 1 23.219 116.506 Q 23.364 117.108 23.509 117.78 A 64.657 64.657 0 0 1 23.529 117.87 A 21.098 21.098 0 0 1 23.864 119.893 A 18.355 18.355 0 0 1 23.929 120.57 A 59.809 59.809 0 0 1 23.972 121.176 Q 24.026 121.978 24.028 122.424 A 7.676 7.676 0 0 1 24.029 122.47 Q 24.429 127.67 25.329 132.87 Q 26.229 138.07 28.029 142.87 A 194.539 194.539 0 0 1 37.56 132.041 A 235.267 235.267 0 0 1 44.029 125.47 Q 53.029 116.67 61.629 107.57 Q 70.229 98.47 77.329 88.87 A 71.554 71.554 0 0 0 84.68 76.635 A 60.927 60.927 0 0 0 87.629 69.07 A 29.966 29.966 0 0 0 89.011 60.033 A 32.952 32.952 0 0 0 88.529 54.47 A 38.969 38.969 0 0 0 84.34 42.241 A 36.871 36.871 0 0 0 83.429 40.67 A 28.532 28.532 0 0 0 76.313 33.078 A 35.783 35.783 0 0 0 72.629 30.67 Q 65.629 26.67 57.229 25.07 Q 53.829 24.47 50.529 24.07 A 56.072 56.072 0 0 0 44.968 23.684 A 63.305 63.305 0 0 0 43.629 23.67 A 35.989 35.989 0 0 1 44.183 27.615 A 44.128 44.128 0 0 1 44.329 30.17 Q 44.429 33.67 44.229 37.07 Q 44.029 40.47 43.629 43.57 A 58.172 58.172 0 0 1 43.21 46.322 Q 42.98 47.61 42.707 48.748 A 34.506 34.506 0 0 1 42.629 49.07 Q 39.829 59.87 36.029 70.77 A 364.371 364.371 0 0 1 29.072 89.156 A 331.853 331.853 0 0 1 28.029 91.67 Q 27.629 92.27 26.929 93.57 A 9.578 9.578 0 0 1 26.677 94.011 Q 26.296 94.637 26.02 94.806 A 0.37 0.37 0 0 1 25.829 94.87 A 0.233 0.233 0 0 1 25.632 94.738 Q 25.429 94.41 25.429 93.27 A 20.193 20.193 0 0 1 25.44 92.553 Q 25.476 91.559 25.618 91.101 A 1.669 1.669 0 0 1 25.629 91.07 A 48.511 48.511 0 0 1 25.833 89.126 Q 26.052 87.364 26.429 85.17 Q 27.029 81.67 27.729 78.07 Q 28.429 74.47 29.229 70.97 Q 30.029 67.47 30.829 65.07 Q 31.216 63.906 32.262 59.546 A 393.718 393.718 0 0 0 32.329 59.27 Q 33.274 55.316 34.293 50.329 A 404.18 404.18 0 0 0 34.629 48.67 Q 35.829 42.67 36.929 35.97 Q 38.029 29.27 38.429 23.67 Z M 105.185 92.923 A 81.364 81.364 0 0 0 112.829 76.47 Q 114.141 72.795 114.765 67.612 A 77.583 77.583 0 0 0 115.229 61.77 A 59.479 59.479 0 0 0 115.286 59.157 Q 115.286 51.284 113.229 42.97 Q 110.829 33.27 104.729 24.07 A 42.876 42.876 0 0 0 97.933 16.148 A 51.988 51.988 0 0 0 87.629 8.87 A 82.629 82.629 0 0 0 81.234 5.82 A 67.712 67.712 0 0 0 67.429 1.57 A 95.23 95.23 0 0 0 61.846 0.676 Q 56.61 0 51.726 0 A 68.205 68.205 0 0 0 48.629 0.07 A 80.499 80.499 0 0 0 40.774 0.796 A 60.345 60.345 0 0 0 32.829 2.47 A 84.917 84.917 0 0 0 29.442 3.511 Q 27.089 4.291 25.094 5.126 A 39.606 39.606 0 0 0 21.429 6.87 Q 21.124 7.073 20.768 7.276 A 15.383 15.383 0 0 1 20.029 7.67 A 3.52 3.52 0 0 0 20.011 7.678 Q 19.231 8.074 19.429 8.47 A 1.076 1.076 0 0 0 19.438 8.488 Q 19.611 8.819 19.858 8.709 A 0.477 0.477 0 0 0 19.929 8.67 A 0.511 0.511 0 0 1 19.939 8.663 Q 20.256 8.463 21.829 8.07 Q 32.029 5.07 43.029 4.27 A 83.018 83.018 0 0 1 49.052 4.049 A 77.494 77.494 0 0 1 64.429 5.57 Q 74.829 7.67 83.929 13.07 A 47.894 47.894 0 0 1 86.706 14.85 A 50.275 50.275 0 0 1 99.429 27.67 Q 104.229 34.67 106.529 42.87 Q 108.829 51.07 108.829 59.47 Q 108.829 67.87 106.629 75.77 Q 104.429 83.67 100.229 90.27 A 142.134 142.134 0 0 1 99.966 90.669 A 129.062 129.062 0 0 1 81.329 113.07 Q 70.829 123.07 59.629 132.07 Q 58.029 133.27 56.529 134.37 A 15.11 15.11 0 0 0 56.294 134.545 Q 55.207 135.375 55.364 135.616 A 0.159 0.159 0 0 0 55.429 135.67 Q 55.429 136.07 56.829 135.47 A 45.377 45.377 0 0 0 57.964 134.963 Q 58.979 134.494 60.229 133.87 Q 66.829 130.27 74.429 125.07 A 97.719 97.719 0 0 0 78.438 122.173 A 112.12 112.12 0 0 0 89.229 112.77 A 105.45 105.45 0 0 0 92.336 109.572 A 118.915 118.915 0 0 0 102.729 96.67 A 73.799 73.799 0 0 0 105.185 92.923 Z M 82.9 91.241 A 82.655 82.655 0 0 0 92.229 74.87 A 35.184 35.184 0 0 0 95.243 60.579 A 37.503 37.503 0 0 0 95.129 57.67 Q 94.429 48.67 90.129 40.77 A 42.782 42.782 0 0 0 88.707 38.35 A 45.2 45.2 0 0 0 78.329 26.97 A 36.919 36.919 0 0 0 72.589 23.258 A 41.055 41.055 0 0 0 60.629 19.27 Q 51.229 17.67 41.329 18.07 A 95.618 95.618 0 0 0 35.863 18.445 A 80.946 80.946 0 0 0 22.829 20.77 A 58.776 58.776 0 0 0 15.763 23.127 A 44.545 44.545 0 0 0 8.029 27.17 A 28.268 28.268 0 0 0 7.399 27.598 Q 1.746 31.559 0.229 36.87 Q -0.171 38.47 0.129 38.47 A 0.421 0.421 0 0 0 0.155 38.469 Q 0.429 38.451 0.429 38.07 A 14.596 14.596 0 0 1 3.37 34.343 Q 6.45 31.467 11.729 29.17 A 58.795 58.795 0 0 1 20.203 26.25 A 74.748 74.748 0 0 1 31.029 24.27 A 181.622 181.622 0 0 1 28.742 35.436 A 223.694 223.694 0 0 1 23.529 53.77 Q 18.429 69.27 14.429 85.87 Q 12.629 93.07 11.729 100.77 A 90.948 90.948 0 0 0 11.106 111.335 A 87.002 87.002 0 0 0 11.229 115.97 Q 11.629 123.47 13.629 130.47 Q 15.629 137.47 19.829 143.07 A 6.421 6.421 0 0 0 20.435 143.765 Q 21.055 144.383 21.9 144.914 A 12.521 12.521 0 0 0 23.529 145.77 A 7.306 7.306 0 0 0 23.818 145.89 Q 26.122 146.788 27.629 145.47 Q 35.429 138.27 44.929 130.27 Q 54.429 122.27 63.429 113.37 Q 72.429 104.47 80.129 94.87 A 95.394 95.394 0 0 0 82.9 91.241 Z M 99.129 79.47 A 26.199 26.199 0 0 0 99.223 79.28 Q 99.648 78.411 99.829 77.87 A 39.019 39.019 0 0 0 103.288 69.437 A 45.953 45.953 0 0 0 104.929 57.37 A 48.071 48.071 0 0 0 104.93 56.952 A 48.375 48.375 0 0 0 99.629 35.07 L 99.627 35.067 A 40.448 40.448 0 0 0 92.729 25.17 Q 88.629 20.87 83.729 17.77 Q 78.829 14.67 73.429 12.47 Q 68.029 10.27 62.629 9.07 A 46.156 46.156 0 0 0 58.26 8.229 Q 54.177 7.642 49.674 7.695 A 69.42 69.42 0 0 0 44.329 7.97 A 95.156 95.156 0 0 0 25.172 11.626 A 88.973 88.973 0 0 0 25.029 11.67 A 75.441 75.441 0 0 0 17.933 14.209 A 58.916 58.916 0 0 0 8.929 18.87 A 31.813 31.813 0 0 0 5.934 21.018 Q 4.089 22.521 2.813 24.111 A 13.144 13.144 0 0 0 0.429 28.47 A 18.545 18.545 0 0 0 0.384 28.698 Q -0.075 31.152 1.018 29.418 A 12.025 12.025 0 0 0 1.229 29.07 A 5.687 5.687 0 0 1 1.898 28.113 Q 3.398 26.353 6.929 24.47 A 42.97 42.97 0 0 1 8.271 23.784 Q 12.368 21.781 17.929 20.07 A 95.438 95.438 0 0 1 23.884 18.454 A 121.991 121.991 0 0 1 32.329 16.77 Q 40.229 15.47 48.429 15.47 Q 59.829 15.67 70.129 19.27 Q 80.429 22.87 87.529 30.27 A 37.845 37.845 0 0 1 93.915 39.317 A 48.472 48.472 0 0 1 97.629 49.27 Q 100.629 60.87 97.629 76.87 Q 97.629 77.27 97.329 78.37 Q 97.029 79.47 96.729 80.67 Q 96.429 81.87 96.229 82.87 L 96.029 83.87 A 0.148 0.148 0 0 0 96.137 83.914 Q 96.362 83.914 96.829 83.37 Q 97.185 82.954 97.541 82.397 A 13.765 13.765 0 0 0 98.029 81.57 Q 98.629 80.47 99.129 79.47 Z M 162.829 132.87 Q 160.629 134.07 158.229 135.27 Q 155.829 136.47 153.329 137.17 A 19.248 19.248 0 0 1 148.81 137.856 A 21.909 21.909 0 0 1 148.029 137.87 A 17.279 17.279 0 0 1 144.084 137.397 A 21.007 21.007 0 0 1 142.229 136.87 A 16.948 16.948 0 0 1 138.061 134.799 A 13.008 13.008 0 0 1 133.929 130.17 A 59.945 59.945 0 0 1 131.348 124.694 A 48.417 48.417 0 0 1 130.029 121.07 Q 127.103 112.292 127.103 103.599 A 51.617 51.617 0 0 1 127.129 101.97 A 239.433 239.433 0 0 1 127.855 89.587 A 292.423 292.423 0 0 1 128.629 81.67 Q 129.422 74.129 131.89 65.112 A 142.676 142.676 0 0 1 131.929 64.97 Q 134.429 55.87 138.229 46.87 A 133.883 133.883 0 0 1 145.425 32.287 A 120.895 120.895 0 0 1 146.729 30.07 A 75.822 75.822 0 0 1 150.937 23.781 Q 153.704 20.082 156.629 17.27 L 158.129 15.77 A 6.783 6.783 0 0 1 158.441 15.475 Q 159.023 14.963 159.365 14.963 A 0.358 0.358 0 0 1 159.629 15.07 A 0.069 0.069 0 0 1 159.646 15.111 Q 159.692 15.488 157.829 18.47 A 76.546 76.546 0 0 0 156.5 20.684 Q 154.954 23.357 153.029 27.07 Q 150.229 32.47 147.429 39.37 A 264.185 264.185 0 0 0 143.968 48.385 A 313.369 313.369 0 0 0 141.929 54.17 Q 139.229 62.07 137.429 70.47 Q 135.629 78.67 135.029 86.47 A 180.152 180.152 0 0 0 134.613 93.689 Q 134.514 96.379 134.514 98.886 A 122.47 122.47 0 0 0 134.529 100.77 A 164.188 164.188 0 0 0 134.66 105.363 Q 134.738 107.16 134.855 108.762 A 80.529 80.529 0 0 0 135.129 111.77 A 146.746 146.746 0 0 0 135.357 113.72 Q 135.658 116.13 135.919 117.386 A 12.439 12.439 0 0 0 136.029 117.87 A 47.854 47.854 0 0 0 137.63 122.987 A 58.355 58.355 0 0 0 138.929 126.17 A 14.564 14.564 0 0 0 140.526 128.963 Q 141.932 130.861 143.83 131.87 A 9.128 9.128 0 0 0 144.229 132.07 A 11.86 11.86 0 0 0 147.295 133.01 Q 149.366 133.364 151.872 133.156 A 25.297 25.297 0 0 0 152.729 133.07 A 26.63 26.63 0 0 0 158.397 131.793 A 22.412 22.412 0 0 0 161.829 130.27 A 1.251 1.251 0 0 1 161.943 130.172 Q 162.161 130.003 162.667 129.69 A 31.332 31.332 0 0 1 163.029 129.47 Q 164.029 128.87 165.129 128.17 A 47.544 47.544 0 0 1 166.116 127.557 Q 166.65 127.235 167.129 126.97 A 6.432 6.432 0 0 1 167.357 126.848 Q 168.055 126.496 168.229 126.67 Q 168.416 127.044 168.077 127.77 A 4.184 4.184 0 0 1 168.029 127.87 Q 167.738 128.45 167.185 129.136 A 13.086 13.086 0 0 1 166.729 129.67 A 18.096 18.096 0 0 1 164.763 131.541 A 19.781 19.781 0 0 1 164.729 131.57 A 17.013 17.013 0 0 1 164.07 132.083 Q 163.381 132.593 162.833 132.867 A 5.13 5.13 0 0 1 162.829 132.87 Z M 212.14 108.376 A 273.656 273.656 0 0 0 217.029 91.27 A 176.412 176.412 0 0 1 217.657 88.645 Q 218.791 84.054 220.629 77.47 Q 223.029 68.87 224.929 59.67 Q 226.829 50.47 227.429 41.97 Q 227.811 36.548 227.055 32.388 A 21.73 21.73 0 0 0 225.829 28.07 A 7.076 7.076 0 0 0 225.806 27.992 Q 225.556 27.153 225.23 26.846 A 0.579 0.579 0 0 0 224.829 26.67 A 0.235 0.235 0 0 0 224.635 26.781 Q 224.478 26.996 224.44 27.63 A 7.478 7.478 0 0 0 224.429 28.07 A 110.074 110.074 0 0 1 223.974 34.923 A 92.552 92.552 0 0 1 221.529 48.97 Q 219.029 58.67 216.229 68.07 Q 211.629 83.07 207.929 97.87 Q 204.229 112.67 203.429 127.67 L 203.429 129.77 A 3.787 3.787 0 0 0 203.43 129.879 Q 203.459 130.88 204.029 131.07 A 0.359 0.359 0 0 0 204.045 131.077 Q 204.437 131.249 204.829 130.27 L 205.629 128.27 Q 207.129 123.645 208.98 118.004 A 4779.765 4779.765 0 0 1 211.329 110.87 A 300.537 300.537 0 0 0 212.14 108.376 Z M 50.621 33.82 A 19.89 19.89 0 0 0 49.229 29.47 A 5.133 5.133 0 0 1 49.135 29.271 Q 48.982 28.929 48.829 28.47 Q 48.686 28.043 48.544 27.92 A 0.177 0.177 0 0 0 48.429 27.87 A 0.396 0.396 0 0 0 48.292 27.987 Q 48.089 28.253 48.043 28.987 A 7.62 7.62 0 0 0 48.029 29.47 A 112.95 112.95 0 0 1 47.897 32.154 A 100.988 100.988 0 0 1 45.229 50.07 Q 42.829 59.87 40.229 68.87 Q 35.829 83.67 32.129 98.07 Q 28.429 112.47 27.829 127.27 L 27.829 129.37 A 3.606 3.606 0 0 0 27.832 129.525 Q 27.873 130.47 28.429 130.47 Q 28.76 130.47 29.503 128.549 A 36.24 36.24 0 0 0 29.829 127.67 A 298.021 298.021 0 0 1 31.321 122.935 Q 33.091 117.47 35.429 110.87 Q 38.829 101.27 41.229 91.67 A 178.321 178.321 0 0 1 41.494 90.537 Q 42.671 85.584 44.729 78.07 A 230.077 230.077 0 0 0 45.296 75.959 A 252.846 252.846 0 0 0 48.829 60.57 Q 50.629 51.47 51.129 43.07 A 51.02 51.02 0 0 0 51.166 42.351 Q 51.385 37.544 50.621 33.82 Z M 213.627 68.247 A 1145.052 1145.052 0 0 0 219.229 47.47 A 44.925 44.925 0 0 0 219.359 46.933 Q 220.262 43.124 220.729 38.27 Q 221.229 33.07 220.929 27.87 A 65.827 65.827 0 0 0 220.909 27.545 A 60.067 60.067 0 0 0 219.529 17.87 A 27.133 27.133 0 0 0 218.471 14.333 A 20.792 20.792 0 0 0 216.029 9.67 A 2.284 2.284 0 0 0 215.999 9.613 Q 215.894 9.416 215.74 9.22 A 3.843 3.843 0 0 0 215.429 8.87 A 1.99 1.99 0 0 0 215.291 8.744 Q 214.96 8.47 214.629 8.47 A 0.294 0.294 0 0 0 214.35 8.649 Q 214.155 9.037 214.429 10.27 A 26.812 26.812 0 0 1 214.486 10.632 Q 215.019 14.119 214.829 18.87 A 112.843 112.843 0 0 1 214.608 22.704 A 135.241 135.241 0 0 1 213.929 29.47 Q 213.229 35.07 212.229 40.77 Q 211.229 46.47 210.229 51.27 Q 209.604 54.27 209.018 56.762 A 139.579 139.579 0 0 1 208.329 59.57 A 246.03 246.03 0 0 1 208.022 60.752 Q 207.547 62.561 207.244 63.581 A 22.621 22.621 0 0 1 207.029 64.27 Q 206.529 65.77 205.99 67.699 A 123.76 123.76 0 0 0 205.329 70.17 Q 204.429 73.67 203.529 77.37 A 117.198 117.198 0 0 0 203.308 78.291 A 105.546 105.546 0 0 0 202.029 84.57 Q 201.652 86.764 201.433 88.526 A 48.511 48.511 0 0 0 201.229 90.47 Q 201.029 91.47 201.029 93.07 Q 201.029 94.21 201.232 94.538 A 0.233 0.233 0 0 0 201.429 94.67 Q 201.929 94.836 202.639 93.819 A 7.815 7.815 0 0 0 202.929 93.37 A 166.06 166.06 0 0 1 203.068 93.138 Q 203.86 91.822 204.229 91.27 Q 210.029 81.07 213.229 69.67 A 1250.88 1250.88 0 0 0 213.627 68.247 Z M 47.229 138.67 L 29.229 150.07 Q 28.846 150.261 28.19 150.452 A 12.522 12.522 0 0 1 28.129 150.47 A 3.002 3.002 0 0 1 27.877 150.531 Q 27.525 150.599 27.262 150.548 A 0.91 0.91 0 0 1 27.029 150.47 Q 26.659 150.285 26.716 149.928 A 0.716 0.716 0 0 1 26.729 149.87 A 3.818 3.818 0 0 1 26.957 149.22 A 4.35 4.35 0 0 1 27.029 149.07 Q 27.216 148.695 27.579 148.32 A 4.421 4.421 0 0 1 27.629 148.27 Q 30.232 146.432 33.362 143.891 A 167.384 167.384 0 0 0 35.329 142.27 A 1741.389 1741.389 0 0 1 43.083 135.816 A 1909.611 1909.611 0 0 1 44.229 134.87 Q 47.629 132.27 52.329 128.27 Q 57.029 124.27 61.529 120.67 Q 66.029 117.07 69.329 114.57 Q 72.629 112.07 73.029 112.47 Q 73.219 112.66 72.323 113.936 A 19.753 19.753 0 0 1 72.229 114.07 A 31.026 31.026 0 0 1 71.258 115.352 Q 70.744 115.998 70.141 116.697 A 55.307 55.307 0 0 1 69.729 117.17 L 66.729 120.57 Q 65.43 122.041 64.806 122.688 A 13.974 13.974 0 0 1 64.629 122.87 L 56.129 131.37 A 58.277 58.277 0 0 1 50.074 136.668 A 50.165 50.165 0 0 1 47.229 138.67 Z M 201.229 133.87 Q 201.829 137.87 202.529 141.07 A 20.329 20.329 0 0 0 204.701 146.705 A 23.039 23.039 0 0 0 205.029 147.27 Q 205.229 147.47 205.329 147.97 A 1.162 1.162 0 0 1 205.341 148.042 Q 205.39 148.403 205.134 148.459 A 0.489 0.489 0 0 1 205.029 148.47 Q 204.029 148.47 203.029 147.47 Q 200.829 144.87 199.429 142.47 Q 198.029 140.07 196.829 134.07 Q 196.429 131.67 196.229 128.27 Q 196.029 124.87 196.229 121.67 A 46.322 46.322 0 0 1 196.411 119.512 Q 196.522 118.501 196.672 117.633 A 20.613 20.613 0 0 1 196.929 116.37 Q 197.429 114.27 198.229 114.27 A 0.137 0.137 0 0 1 198.324 114.326 Q 198.496 114.519 198.729 115.37 Q 199.029 116.47 199.329 117.77 Q 199.629 119.07 199.729 120.37 A 87.305 87.305 0 0 1 199.768 120.895 Q 199.829 121.757 199.829 122.07 A 271.997 271.997 0 0 0 200.829 130.942 A 235.148 235.148 0 0 0 201.229 133.87 Z" vector-effect="non-scaling-stroke"/></g></svg>