<svg width="260.001" height="148.001" viewBox="0 0 260.001 148.001" xmlns="http://www.w3.org/2000/svg"><g id="svgGroup" stroke-linecap="round" fill-rule="evenodd" font-size="9pt" stroke="#00000000" stroke-width="0.25mm" fill="#6777ef" style="stroke:#00000000;stroke-width:0.25mm;fill:#6777ef"><path d="M 134.401 41.001 L 132.401 40.201 A 49.336 49.336 0 0 1 133.889 30.205 A 37.093 37.093 0 0 1 138.201 20.001 A 40.872 40.872 0 0 1 144.811 11.785 A 34.644 34.644 0 0 1 151.001 7.101 A 34.836 34.836 0 0 1 157.613 4.025 A 26.147 26.147 0 0 1 166.001 2.601 A 18.444 18.444 0 0 1 179.357 8.058 A 22.486 22.486 0 0 1 179.401 8.101 A 16.283 16.283 0 0 1 183.13 13.969 Q 184.124 16.553 184.59 19.787 A 43.683 43.683 0 0 1 185.001 26.001 Q 185.001 33.859 182.988 43.468 A 122.334 122.334 0 0 1 182.701 44.801 Q 180.401 55.201 177.301 65.901 A 481.127 481.127 0 0 0 173.739 78.846 A 400.984 400.984 0 0 0 171.901 86.201 Q 169.601 95.801 169.601 102.401 A 23.403 23.403 0 0 0 169.774 105.335 Q 169.961 106.814 170.352 108.039 A 10.203 10.203 0 0 0 171.201 110.001 A 5.312 5.312 0 0 0 175.044 112.667 A 8.581 8.581 0 0 0 176.601 112.801 A 12.142 12.142 0 0 0 181.577 111.671 Q 183.389 110.862 185.244 109.473 A 29.002 29.002 0 0 0 187.801 107.301 Q 193.601 101.801 199.001 93.501 Q 204.401 85.201 208.801 77.201 A 314.248 314.248 0 0 1 211.075 61.045 Q 213.876 44.476 218.001 33.201 A 117.037 117.037 0 0 1 221.661 24.274 Q 225.64 15.677 230.054 10.719 A 30.099 30.099 0 0 1 231.101 9.601 Q 237.965 2.64 243.988 2.409 A 10.762 10.762 0 0 1 244.401 2.401 Q 251.001 2.401 255.501 8.901 Q 260.001 15.401 260.001 25.801 Q 260.001 33.704 256.681 43.304 A 85.259 85.259 0 0 1 255.501 46.501 A 59.039 59.039 0 0 1 249.81 57.348 Q 245.751 63.532 239.801 69.801 A 183.587 183.587 0 0 0 237.734 82.51 A 203.867 203.867 0 0 0 237.501 84.401 A 131.138 131.138 0 0 0 236.728 93.588 A 109.806 109.806 0 0 0 236.601 98.801 A 64.418 64.418 0 0 0 236.857 104.725 Q 237.126 107.631 237.678 110.106 A 30.364 30.364 0 0 0 238.501 113.101 A 12.022 12.022 0 0 0 239.633 115.595 Q 240.532 117.06 241.773 117.856 A 6.211 6.211 0 0 0 245.201 118.801 A 7.395 7.395 0 0 0 248.966 117.738 Q 250.157 117.045 251.301 115.901 A 15.578 15.578 0 0 0 253.43 113.193 Q 254.983 110.735 256.201 107.201 L 257.801 108.001 A 76.203 76.203 0 0 1 257.068 118.95 Q 255.394 130.448 249.901 137.401 Q 242.001 147.401 231.201 147.401 A 17.898 17.898 0 0 1 218.1 141.744 A 28.339 28.339 0 0 1 214.801 137.701 Q 208.201 128.001 207.001 104.801 Q 199.159 120.484 190.098 130.222 A 61.367 61.367 0 0 1 182.601 137.101 Q 169.201 147.401 158.201 147.401 A 19.782 19.782 0 0 1 143.064 140.893 A 25.309 25.309 0 0 1 141.401 138.901 A 29.445 29.445 0 0 1 136.703 129.235 Q 135.001 123.329 135.001 115.801 Q 135.001 106.401 137.201 95.201 Q 139.401 84.001 142.401 72.701 Q 145.401 61.401 147.601 52.001 A 122.718 122.718 0 0 0 148.714 46.772 Q 149.647 41.815 149.779 38.316 A 29.561 29.561 0 0 0 149.801 37.201 A 17.445 17.445 0 0 0 149.654 34.822 Q 149.287 32.177 148.013 31.046 A 3.498 3.498 0 0 0 145.601 30.201 A 6.317 6.317 0 0 0 143.322 30.659 Q 141.531 31.35 139.531 33.088 A 21.848 21.848 0 0 0 139.401 33.201 Q 136.001 36.201 134.401 41.001 Z M 1.201 51.801 L 0.001 51.401 A 60.011 60.011 0 0 1 1.449 37.905 A 45.226 45.226 0 0 1 7.301 23.701 Q 14.601 12.201 28.101 6.101 A 66.117 66.117 0 0 1 43.828 1.341 Q 50.904 0.085 58.927 0.006 A 109.715 109.715 0 0 1 60.001 0.001 A 97.39 97.39 0 0 1 73.659 0.908 Q 80.788 1.919 86.857 4.055 A 56.704 56.704 0 0 1 89.601 5.101 A 60.145 60.145 0 0 1 101.818 11.785 A 49.805 49.805 0 0 1 109.901 19.001 Q 117.801 27.801 121.601 39.101 Q 125.401 50.401 125.401 62.801 A 89.638 89.638 0 0 1 120.897 90.542 A 101.74 101.74 0 0 1 120.101 92.901 Q 114.801 108.001 104.901 120.501 Q 95.001 133.001 80.901 140.501 A 64.517 64.517 0 0 1 54.758 147.818 A 77.355 77.355 0 0 1 49.401 148.001 Q 41.601 148.001 33.601 146.201 A 51.731 51.731 0 0 1 19.744 140.98 A 48.733 48.733 0 0 1 18.901 140.501 Q 12.201 136.601 8.101 130.301 Q 4.001 124.001 4.001 115.201 L 4.001 113.301 A 10.65 10.65 0 0 1 4.025 112.623 Q 4.047 112.271 4.092 111.866 A 26.029 26.029 0 0 1 4.201 111.001 Q 4.801 105.601 6.901 97.601 A 367.118 367.118 0 0 1 9.8 87.21 A 446.032 446.032 0 0 1 11.801 80.601 Q 14.601 71.601 17.301 62.801 Q 20.001 54.001 21.801 46.701 A 87.012 87.012 0 0 0 22.75 42.421 Q 23.601 38.026 23.601 35.001 A 13.238 13.238 0 0 0 23.51 33.371 Q 23.301 31.693 22.61 30.903 A 2.034 2.034 0 0 0 21.001 30.201 A 4.216 4.216 0 0 0 19.462 30.543 Q 17.274 31.416 13.93 34.512 A 53.296 53.296 0 0 0 13.201 35.201 A 40.034 40.034 0 0 0 9.973 38.751 Q 6.723 42.737 2.948 48.886 A 167.779 167.779 0 0 0 1.201 51.801 Z M 52.801 121.601 Q 60.801 121.601 67.301 116.901 A 40.248 40.248 0 0 0 75.435 108.973 A 50.104 50.104 0 0 0 78.601 104.401 Q 83.401 96.601 86.001 87.101 Q 88.601 77.601 88.601 68.001 A 59.063 59.063 0 0 0 85.721 49.441 A 55.577 55.577 0 0 0 84.701 46.601 Q 80.801 36.601 72.201 30.401 A 31.119 31.119 0 0 0 61.596 25.563 Q 57.269 24.456 52.187 24.249 A 58.468 58.468 0 0 0 49.801 24.201 Q 50.801 28.001 51.301 32.001 Q 51.801 36.001 51.801 40.201 A 107.098 107.098 0 0 1 50.307 57.802 A 117.725 117.725 0 0 1 50.101 59.001 Q 48.401 68.601 46.301 77.601 Q 44.201 86.601 42.501 94.401 A 84.03 84.03 0 0 0 41.369 100.662 Q 40.801 104.732 40.801 108.201 A 23.966 23.966 0 0 0 41.095 112.073 Q 41.437 114.159 42.178 115.847 A 11.697 11.697 0 0 0 43.401 118.001 A 7.749 7.749 0 0 0 46.905 120.644 Q 48.25 121.182 49.947 121.418 A 20.812 20.812 0 0 0 52.801 121.601 Z" vector-effect="non-scaling-stroke"/></g></svg>